M48
; DRILL file {KiCad 7.0.7} date 2024 July 02, Tuesday 20:39:25
; FORMAT={-:-/ absolute / metric / decimal}
; #@! TF.CreationDate,2024-07-02T20:39:25-05:00
; #@! TF.GenerationSoftware,Kicad,Pcbnew,7.0.7
; #@! TF.FileFunction,Plated,1,2,PTH
FMAT,2
METRIC
; #@! TA.AperFunction,Plated,PTH,ViaDrill
T1C0.400
; #@! TA.AperFunction,Plated,PTH,ComponentDrill
T2C0.700
; #@! TA.AperFunction,Plated,PTH,ComponentDrill
T3C0.800
; #@! TA.AperFunction,Plated,PTH,ComponentDrill
T4C0.900
; #@! TA.AperFunction,Plated,PTH,ComponentDrill
T5C1.000
%
G90
G05
T1
X146.3Y-107.5
T2
X57.4Y-34.6
X57.4Y-37.14
X57.4Y-39.68
X57.4Y-42.22
X57.4Y-44.76
X57.4Y-47.3
X57.4Y-49.84
X57.4Y-52.38
X57.4Y-54.92
X57.4Y-57.46
X57.4Y-60.0
X57.4Y-62.54
X57.4Y-65.08
X57.4Y-67.62
X57.4Y-70.16
X57.4Y-72.7
X57.4Y-75.24
X57.4Y-77.78
X57.4Y-80.32
X57.4Y-82.86
X57.4Y-85.4
X57.4Y-87.94
X57.4Y-90.48
X57.4Y-93.02
X57.4Y-95.56
X57.4Y-98.1
X57.4Y-100.95
X59.94Y-34.6
X59.94Y-37.14
X59.94Y-39.68
X59.94Y-42.22
X59.94Y-44.76
X59.94Y-47.3
X59.94Y-49.84
X59.94Y-52.38
X59.94Y-54.92
X59.94Y-57.46
X59.94Y-60.0
X59.94Y-62.54
X59.94Y-65.08
X59.94Y-67.62
X59.94Y-70.16
X59.94Y-72.7
X59.94Y-75.24
X59.94Y-77.78
X59.94Y-80.32
X59.94Y-82.86
X59.94Y-85.4
X59.94Y-87.94
X59.94Y-90.48
X59.94Y-93.02
X59.94Y-95.56
X59.94Y-98.1
X59.94Y-100.95
X59.94Y-103.5
X62.48Y-34.6
X62.48Y-37.14
X62.48Y-39.68
X62.48Y-42.22
X62.48Y-44.76
X62.48Y-47.3
X62.48Y-49.84
X62.48Y-52.38
X62.48Y-54.92
X62.48Y-57.46
X62.48Y-60.0
X62.48Y-62.54
X62.48Y-65.08
X62.48Y-67.62
X62.48Y-70.16
X62.48Y-72.7
X62.48Y-75.24
X62.48Y-77.78
X62.48Y-80.32
X62.48Y-82.86
X62.48Y-85.4
X62.48Y-87.94
X62.48Y-90.48
X62.48Y-93.02
X62.48Y-95.56
X62.48Y-98.1
X62.48Y-100.95
X62.48Y-103.5
X65.02Y-34.6
X65.02Y-37.14
X65.02Y-39.68
X65.02Y-42.22
X65.02Y-44.76
X65.02Y-47.3
X65.02Y-49.84
X65.02Y-52.38
X65.02Y-54.92
X65.02Y-57.46
X65.02Y-60.0
X65.02Y-62.54
X65.02Y-65.08
X65.02Y-67.62
X65.02Y-70.16
X65.02Y-72.7
X65.02Y-75.24
X65.02Y-77.78
X65.02Y-80.32
X65.02Y-82.86
X65.02Y-85.4
X65.02Y-87.94
X65.02Y-90.48
X65.02Y-93.02
X65.02Y-95.56
X65.02Y-98.1
X65.02Y-100.95
X65.02Y-103.5
X67.56Y-34.6
X67.56Y-37.14
X67.56Y-39.68
X67.56Y-42.22
X67.56Y-44.76
X67.56Y-47.3
X67.56Y-49.84
X67.56Y-52.38
X67.56Y-54.92
X67.56Y-57.46
X67.56Y-60.0
X67.56Y-62.54
X67.56Y-65.08
X67.56Y-67.62
X67.56Y-70.16
X67.56Y-72.7
X67.56Y-75.24
X67.56Y-77.78
X67.56Y-80.32
X67.56Y-82.86
X67.56Y-85.4
X67.56Y-87.94
X67.56Y-90.48
X67.56Y-93.02
X67.56Y-95.56
X67.56Y-98.1
X67.56Y-100.95
X67.56Y-103.5
X70.1Y-34.6
X70.1Y-37.14
X70.1Y-39.68
X70.1Y-42.22
X70.1Y-44.76
X70.1Y-47.3
X70.1Y-49.84
X70.1Y-52.38
X70.1Y-54.92
X70.1Y-57.46
X70.1Y-60.0
X70.1Y-62.54
X70.1Y-65.08
X70.1Y-67.62
X70.1Y-70.16
X70.1Y-72.7
X70.1Y-75.24
X70.1Y-77.78
X70.1Y-80.32
X70.1Y-82.86
X70.1Y-85.4
X70.1Y-87.94
X70.1Y-90.48
X70.1Y-93.02
X70.1Y-95.56
X70.1Y-98.1
X70.1Y-100.95
X70.1Y-103.5
X72.64Y-34.6
X72.64Y-37.14
X72.64Y-39.68
X72.64Y-42.22
X72.64Y-44.76
X72.64Y-47.3
X72.64Y-49.84
X72.64Y-52.38
X72.64Y-54.92
X72.64Y-57.46
X72.64Y-60.0
X72.64Y-62.54
X72.64Y-65.08
X72.64Y-67.62
X72.64Y-70.16
X72.64Y-72.7
X72.64Y-75.24
X72.64Y-77.78
X72.64Y-80.32
X72.64Y-82.86
X72.64Y-85.4
X72.64Y-87.94
X72.64Y-90.48
X72.64Y-93.02
X72.64Y-95.56
X72.64Y-98.1
X72.64Y-100.95
X72.64Y-103.5
X75.18Y-34.6
X75.18Y-37.14
X75.18Y-39.68
X75.18Y-42.22
X75.18Y-44.76
X75.18Y-47.3
X75.18Y-49.84
X75.18Y-52.38
X75.18Y-54.92
X75.18Y-57.46
X75.18Y-60.0
X75.18Y-62.54
X75.18Y-65.08
X75.18Y-67.62
X75.18Y-70.16
X75.18Y-72.7
X75.18Y-75.24
X75.18Y-77.78
X75.18Y-80.32
X75.18Y-82.86
X75.18Y-85.4
X75.18Y-87.94
X75.18Y-90.48
X75.18Y-93.02
X75.18Y-95.56
X75.18Y-98.1
X75.18Y-100.95
X75.18Y-103.5
X77.72Y-34.6
X77.72Y-37.14
X77.72Y-39.68
X77.72Y-42.22
X77.72Y-44.76
X77.72Y-47.3
X77.72Y-49.84
X77.72Y-52.38
X77.72Y-54.92
X77.72Y-57.46
X77.72Y-60.0
X77.72Y-62.54
X77.72Y-65.08
X77.72Y-67.62
X77.72Y-70.16
X77.72Y-72.7
X77.72Y-75.24
X77.72Y-77.78
X77.72Y-80.32
X77.72Y-82.86
X77.72Y-85.4
X77.72Y-87.94
X77.72Y-90.48
X77.72Y-93.02
X77.72Y-95.56
X77.72Y-98.1
X77.72Y-100.95
X77.72Y-103.5
X80.26Y-34.6
X80.26Y-37.14
X80.26Y-39.68
X80.26Y-42.22
X80.26Y-44.76
X80.26Y-47.3
X80.26Y-49.84
X80.26Y-52.38
X80.26Y-54.92
X80.26Y-57.46
X80.26Y-60.0
X80.26Y-62.54
X80.26Y-65.08
X80.26Y-67.62
X80.26Y-70.16
X80.26Y-72.7
X80.26Y-75.24
X80.26Y-77.78
X80.26Y-80.32
X80.26Y-82.86
X80.26Y-85.4
X80.26Y-87.94
X80.26Y-90.48
X80.26Y-93.02
X80.26Y-95.56
X80.26Y-98.1
X80.26Y-100.95
X80.26Y-103.5
X82.8Y-34.6
X82.8Y-37.14
X82.8Y-39.68
X82.8Y-42.22
X82.8Y-44.76
X82.8Y-47.3
X82.8Y-49.84
X82.8Y-52.38
X82.8Y-54.92
X82.8Y-57.46
X82.8Y-60.0
X82.8Y-62.54
X82.8Y-65.08
X82.8Y-67.62
X82.8Y-70.16
X82.8Y-72.7
X82.8Y-75.24
X82.8Y-77.78
X82.8Y-80.32
X82.8Y-82.86
X82.8Y-85.4
X82.8Y-87.94
X82.8Y-90.48
X82.8Y-93.02
X82.8Y-95.56
X82.8Y-98.1
X82.8Y-100.95
X82.8Y-103.5
X85.34Y-34.6
X85.34Y-37.14
X85.34Y-39.68
X85.34Y-42.22
X85.34Y-44.76
X85.34Y-47.3
X85.34Y-49.84
X85.34Y-52.38
X85.34Y-54.92
X85.34Y-57.46
X85.34Y-60.0
X85.34Y-62.54
X85.34Y-65.08
X85.34Y-67.62
X85.34Y-70.16
X85.34Y-72.7
X85.34Y-75.24
X85.34Y-77.78
X85.34Y-80.32
X85.34Y-82.86
X85.34Y-85.4
X85.34Y-87.94
X85.34Y-90.48
X85.34Y-93.02
X85.34Y-95.56
X85.34Y-98.1
X85.34Y-100.95
X85.34Y-103.5
X87.88Y-34.6
X87.88Y-37.14
X87.88Y-39.68
X87.88Y-42.22
X87.88Y-44.76
X87.88Y-47.3
X87.88Y-49.84
X87.88Y-52.38
X87.88Y-54.92
X87.88Y-57.46
X87.88Y-60.0
X87.88Y-62.54
X87.88Y-65.08
X87.88Y-67.62
X87.88Y-70.16
X87.88Y-72.7
X87.88Y-75.24
X87.88Y-77.78
X87.88Y-80.32
X87.88Y-82.86
X87.88Y-85.4
X87.88Y-87.94
X87.88Y-90.48
X87.88Y-93.02
X87.88Y-95.56
X87.88Y-98.1
X87.88Y-100.95
X87.88Y-103.5
X90.42Y-34.6
X90.42Y-37.14
X90.42Y-39.68
X90.42Y-42.22
X90.42Y-44.76
X90.42Y-47.3
X90.42Y-49.84
X90.42Y-52.38
X90.42Y-54.92
X90.42Y-57.46
X90.42Y-60.0
X90.42Y-62.54
X90.42Y-65.08
X90.42Y-67.62
X90.42Y-70.16
X90.42Y-72.7
X90.42Y-75.24
X90.42Y-77.78
X90.42Y-80.32
X90.42Y-82.86
X90.42Y-85.4
X90.42Y-87.94
X90.42Y-90.48
X90.42Y-93.02
X90.42Y-95.56
X90.42Y-98.1
X90.42Y-100.95
X90.42Y-103.5
X92.96Y-34.6
X92.96Y-37.14
X92.96Y-39.68
X92.96Y-42.22
X92.96Y-44.76
X92.96Y-47.3
X92.96Y-49.84
X92.96Y-52.38
X92.96Y-54.92
X92.96Y-57.46
X92.96Y-60.0
X92.96Y-62.54
X92.96Y-65.08
X92.96Y-67.62
X92.96Y-70.16
X92.96Y-72.7
X92.96Y-75.24
X92.96Y-77.78
X92.96Y-80.32
X92.96Y-82.86
X92.96Y-85.4
X92.96Y-87.94
X92.96Y-90.48
X92.96Y-93.02
X92.96Y-95.56
X92.96Y-98.1
X92.96Y-100.95
X92.96Y-103.5
X95.5Y-34.6
X95.5Y-37.14
X95.5Y-39.68
X95.5Y-42.22
X95.5Y-44.76
X95.5Y-47.3
X95.5Y-49.84
X95.5Y-52.38
X95.5Y-54.92
X95.5Y-57.46
X95.5Y-60.0
X95.5Y-62.54
X95.5Y-65.08
X95.5Y-67.62
X95.5Y-70.16
X95.5Y-72.7
X95.5Y-75.24
X95.5Y-77.78
X95.5Y-80.32
X95.5Y-82.86
X95.5Y-85.4
X95.5Y-87.94
X95.5Y-90.48
X95.5Y-93.02
X95.5Y-95.56
X95.5Y-98.1
X95.5Y-100.95
X95.5Y-103.5
X98.04Y-34.6
X98.04Y-37.14
X98.04Y-39.68
X98.04Y-42.22
X98.04Y-44.76
X98.04Y-47.3
X98.04Y-49.84
X98.04Y-52.38
X98.04Y-54.92
X98.04Y-57.46
X98.04Y-60.0
X98.04Y-62.54
X98.04Y-65.08
X98.04Y-67.62
X98.04Y-70.16
X98.04Y-72.7
X98.04Y-75.24
X98.04Y-77.78
X98.04Y-80.32
X98.04Y-82.86
X98.04Y-85.4
X98.04Y-87.94
X98.04Y-90.48
X98.04Y-93.02
X98.04Y-95.56
X98.04Y-98.1
X98.04Y-100.95
X98.04Y-103.5
X100.58Y-34.6
X100.58Y-37.14
X100.58Y-39.68
X100.58Y-42.22
X100.58Y-44.76
X100.58Y-47.3
X100.58Y-49.84
X100.58Y-52.38
X100.58Y-54.92
X100.58Y-57.46
X100.58Y-60.0
X100.58Y-62.54
X100.58Y-65.08
X100.58Y-67.62
X100.58Y-70.16
X100.58Y-72.7
X100.58Y-75.24
X100.58Y-77.78
X100.58Y-80.32
X100.58Y-82.86
X100.58Y-85.4
X100.58Y-87.94
X100.58Y-90.48
X100.58Y-93.02
X100.58Y-95.56
X100.58Y-98.1
X100.58Y-100.95
X100.58Y-103.5
X103.12Y-34.6
X103.12Y-37.14
X103.12Y-39.68
X103.12Y-42.22
X103.12Y-44.76
X103.12Y-47.3
X103.12Y-49.84
X103.12Y-52.38
X103.12Y-54.92
X103.12Y-57.46
X103.12Y-60.0
X103.12Y-62.54
X103.12Y-65.08
X103.12Y-67.62
X103.12Y-70.16
X103.12Y-72.7
X103.12Y-75.24
X103.12Y-77.78
X103.12Y-80.32
X103.12Y-82.86
X103.12Y-85.4
X103.12Y-87.94
X103.12Y-90.48
X103.12Y-93.02
X103.12Y-95.56
X103.12Y-98.1
X103.12Y-100.95
X103.12Y-103.5
X105.66Y-34.6
X105.66Y-37.14
X105.66Y-39.68
X105.66Y-42.22
X105.66Y-44.76
X105.66Y-47.3
X105.66Y-49.84
X105.66Y-52.38
X105.66Y-54.92
X105.66Y-57.46
X105.66Y-60.0
X105.66Y-62.54
X105.66Y-65.08
X105.66Y-67.62
X105.66Y-70.16
X105.66Y-72.7
X105.66Y-75.24
X105.66Y-77.78
X105.66Y-80.32
X105.66Y-82.86
X105.66Y-85.4
X105.66Y-87.94
X105.66Y-90.48
X105.66Y-93.02
X105.66Y-95.56
X105.66Y-98.1
X105.66Y-100.95
X105.66Y-103.5
X108.2Y-34.6
X108.2Y-37.14
X108.2Y-39.68
X108.2Y-42.22
X108.2Y-44.76
X108.2Y-47.3
X108.2Y-49.84
X108.2Y-52.38
X108.2Y-54.92
X108.2Y-57.46
X108.2Y-60.0
X108.2Y-62.54
X108.2Y-65.08
X108.2Y-67.62
X108.2Y-70.16
X108.2Y-72.7
X108.2Y-75.24
X108.2Y-77.78
X108.2Y-80.32
X108.2Y-82.86
X108.2Y-85.4
X108.2Y-87.94
X108.2Y-90.48
X108.2Y-93.02
X108.2Y-95.56
X108.2Y-98.1
X108.2Y-100.95
X108.2Y-103.5
X110.74Y-34.6
X110.74Y-37.14
X110.74Y-39.68
X110.74Y-42.22
X110.74Y-44.76
X110.74Y-47.3
X110.74Y-49.84
X110.74Y-52.38
X110.74Y-54.92
X110.74Y-57.46
X110.74Y-60.0
X110.74Y-62.54
X110.74Y-65.08
X110.74Y-67.62
X110.74Y-70.16
X110.74Y-72.7
X110.74Y-75.24
X110.74Y-77.78
X110.74Y-80.32
X110.74Y-82.86
X110.74Y-85.4
X110.74Y-87.94
X110.74Y-90.48
X110.74Y-93.02
X110.74Y-95.56
X110.74Y-98.1
X110.74Y-100.95
X110.74Y-103.5
X113.28Y-34.6
X113.28Y-37.14
X113.28Y-39.68
X113.28Y-42.22
X113.28Y-44.76
X113.28Y-47.3
X113.28Y-49.84
X113.28Y-52.38
X113.28Y-54.92
X113.28Y-57.46
X113.28Y-60.0
X113.28Y-62.54
X113.28Y-65.08
X113.28Y-67.62
X113.28Y-70.16
X113.28Y-72.7
X113.28Y-75.24
X113.28Y-77.78
X113.28Y-80.32
X113.28Y-82.86
X113.28Y-85.4
X113.28Y-87.94
X113.28Y-90.48
X113.28Y-93.02
X113.28Y-95.56
X113.28Y-98.1
X113.28Y-100.95
X113.28Y-103.5
X115.82Y-34.6
X115.82Y-37.14
X115.82Y-39.68
X115.82Y-42.22
X115.82Y-44.76
X115.82Y-47.3
X115.82Y-49.84
X115.82Y-52.38
X115.82Y-54.92
X115.82Y-57.46
X115.82Y-60.0
X115.82Y-62.54
X115.82Y-65.08
X115.82Y-67.62
X115.82Y-70.16
X115.82Y-72.7
X115.82Y-75.24
X115.82Y-77.78
X115.82Y-80.32
X115.82Y-82.86
X115.82Y-85.4
X115.82Y-87.94
X115.82Y-90.48
X115.82Y-93.02
X115.82Y-95.56
X115.82Y-98.1
X115.82Y-100.95
X115.82Y-103.5
X118.36Y-34.6
X118.36Y-37.14
X118.36Y-39.68
X118.36Y-42.22
X118.36Y-44.76
X118.36Y-47.3
X118.36Y-49.84
X118.36Y-52.38
X118.36Y-54.92
X118.36Y-57.46
X118.36Y-60.0
X118.36Y-62.54
X118.36Y-65.08
X118.36Y-67.62
X118.36Y-70.16
X118.36Y-72.7
X118.36Y-75.24
X118.36Y-77.78
X118.36Y-80.32
X118.36Y-82.86
X118.36Y-85.4
X118.36Y-87.94
X118.36Y-90.48
X118.36Y-93.02
X118.36Y-95.56
X118.36Y-98.1
X118.36Y-100.95
X118.36Y-103.5
X120.9Y-34.6
X120.9Y-37.14
X120.9Y-39.68
X120.9Y-42.22
X120.9Y-44.76
X120.9Y-47.3
X120.9Y-49.84
X120.9Y-52.38
X120.9Y-54.92
X120.9Y-57.46
X120.9Y-60.0
X120.9Y-62.54
X120.9Y-65.08
X120.9Y-67.62
X120.9Y-70.16
X120.9Y-72.7
X120.9Y-75.24
X120.9Y-77.78
X120.9Y-80.32
X120.9Y-82.86
X120.9Y-85.4
X120.9Y-87.94
X120.9Y-90.48
X120.9Y-93.02
X120.9Y-95.56
X120.9Y-98.1
X120.9Y-100.95
X120.9Y-103.5
X123.44Y-34.6
X123.44Y-37.14
X123.44Y-39.68
X123.44Y-42.22
X123.44Y-44.76
X123.44Y-47.3
X123.44Y-49.84
X123.44Y-52.38
X123.44Y-54.92
X123.44Y-57.46
X123.44Y-60.0
X123.44Y-62.54
X123.44Y-65.08
X123.44Y-67.62
X123.44Y-70.16
X123.44Y-72.7
X123.44Y-75.24
X123.44Y-77.78
X123.44Y-80.32
X123.44Y-82.86
X123.44Y-85.4
X123.44Y-87.94
X123.44Y-90.48
X123.44Y-93.02
X123.44Y-95.56
X123.44Y-98.1
X123.44Y-100.95
X123.44Y-103.5
X125.98Y-34.6
X125.98Y-37.14
X125.98Y-39.68
X125.98Y-42.22
X125.98Y-44.76
X125.98Y-47.3
X125.98Y-49.84
X125.98Y-52.38
X125.98Y-54.92
X125.98Y-57.46
X125.98Y-60.0
X125.98Y-62.54
X125.98Y-65.08
X125.98Y-67.62
X125.98Y-70.16
X125.98Y-72.7
X125.98Y-75.24
X125.98Y-77.78
X125.98Y-80.32
X125.98Y-82.86
X125.98Y-85.4
X125.98Y-87.94
X125.98Y-90.48
X125.98Y-93.02
X125.98Y-95.56
X125.98Y-98.1
X125.98Y-100.95
X125.98Y-103.5
X128.52Y-34.6
X128.52Y-37.14
X128.52Y-39.68
X128.52Y-42.22
X128.52Y-44.76
X128.52Y-47.3
X128.52Y-49.84
X128.52Y-52.38
X128.52Y-54.92
X128.52Y-57.46
X128.52Y-60.0
X128.52Y-62.54
X128.52Y-65.08
X128.52Y-67.62
X128.52Y-70.16
X128.52Y-72.7
X128.52Y-75.24
X128.52Y-77.78
X128.52Y-80.32
X128.52Y-82.86
X128.52Y-85.4
X128.52Y-87.94
X128.52Y-90.48
X128.52Y-93.02
X128.52Y-95.56
X128.52Y-98.1
X128.52Y-100.95
X128.52Y-103.5
X131.06Y-34.6
X131.06Y-37.14
X131.06Y-39.68
X131.06Y-42.22
X131.06Y-44.76
X131.06Y-47.3
X131.06Y-49.84
X131.06Y-52.38
X131.06Y-54.92
X131.06Y-57.46
X131.06Y-60.0
X131.06Y-62.54
X131.06Y-65.08
X131.06Y-67.62
X131.06Y-70.16
X131.06Y-72.7
X131.06Y-75.24
X131.06Y-77.78
X131.06Y-80.32
X131.06Y-82.86
X131.06Y-85.4
X131.06Y-87.94
X131.06Y-90.48
X131.06Y-93.02
X131.06Y-95.56
X131.06Y-98.1
X131.06Y-100.95
X131.06Y-103.5
X133.6Y-34.6
X133.6Y-37.14
X133.6Y-39.68
X133.6Y-42.22
X133.6Y-44.76
X133.6Y-47.3
X133.6Y-49.84
X133.6Y-52.38
X133.6Y-54.92
X133.6Y-57.46
X133.6Y-60.0
X133.6Y-62.54
X133.6Y-65.08
X133.6Y-67.62
X133.6Y-70.16
X133.6Y-72.7
X133.6Y-75.24
X133.6Y-77.78
X133.6Y-80.32
X133.6Y-82.86
X133.6Y-85.4
X133.6Y-87.94
X133.6Y-90.48
X133.6Y-93.02
X133.6Y-95.56
X133.6Y-98.1
X133.6Y-100.95
X133.6Y-103.5
X136.14Y-34.6
X136.14Y-37.14
X136.14Y-39.68
X136.14Y-42.22
X136.14Y-44.76
X136.14Y-47.3
X136.14Y-49.84
X136.14Y-52.38
X136.14Y-54.92
X136.14Y-57.46
X136.14Y-60.0
X136.14Y-62.54
X136.14Y-65.08
X136.14Y-67.62
X136.14Y-70.16
X136.14Y-72.7
X136.14Y-75.24
X136.14Y-77.78
X136.14Y-80.32
X136.14Y-82.86
X136.14Y-85.4
X136.14Y-87.94
X136.14Y-90.48
X136.14Y-93.02
X136.14Y-95.56
X136.14Y-98.1
X136.14Y-100.95
X136.14Y-103.5
X138.68Y-34.6
X138.68Y-37.14
X138.68Y-39.68
X138.68Y-42.22
X138.68Y-44.76
X138.68Y-47.3
X138.68Y-49.84
X138.68Y-52.38
X138.68Y-54.92
X138.68Y-57.46
X138.68Y-60.0
X138.68Y-62.54
X138.68Y-65.08
X138.68Y-67.62
X138.68Y-70.16
X138.68Y-72.7
X138.68Y-75.24
X138.68Y-77.78
X138.68Y-80.32
X138.68Y-82.86
X138.68Y-85.4
X138.68Y-87.94
X138.68Y-90.48
X138.68Y-93.02
X138.68Y-95.56
X138.68Y-98.1
X138.68Y-100.95
X138.68Y-103.5
X141.22Y-34.6
X141.22Y-37.14
X141.22Y-39.68
X141.22Y-42.22
X141.22Y-44.76
X141.22Y-47.3
X141.22Y-49.84
X141.22Y-52.38
X141.22Y-54.92
X141.22Y-57.46
X141.22Y-60.0
X141.22Y-62.54
X141.22Y-65.08
X141.22Y-67.62
X141.22Y-70.16
X141.22Y-72.7
X141.22Y-75.24
X141.22Y-77.78
X141.22Y-80.32
X141.22Y-82.86
X141.22Y-85.4
X141.22Y-87.94
X141.22Y-90.48
X141.22Y-93.02
X141.22Y-95.56
X141.22Y-98.1
X141.22Y-100.95
X141.22Y-103.5
X143.76Y-34.6
X143.76Y-37.14
X143.76Y-39.68
X143.76Y-42.22
X143.76Y-44.76
X143.76Y-47.3
X143.76Y-49.84
X143.76Y-52.38
X143.76Y-54.92
X143.76Y-57.46
X143.76Y-60.0
X143.76Y-62.54
X143.76Y-65.08
X143.76Y-67.62
X143.76Y-70.16
X143.76Y-72.7
X143.76Y-75.24
X143.76Y-77.78
X143.76Y-80.32
X143.76Y-82.86
X143.76Y-85.4
X143.76Y-87.94
X143.76Y-90.48
X143.76Y-93.02
X143.76Y-95.56
X143.76Y-98.1
X143.76Y-100.95
X143.76Y-103.5
X146.3Y-34.6
X146.3Y-37.14
X146.3Y-39.68
X146.3Y-42.22
X146.3Y-44.76
X146.3Y-47.3
X146.3Y-49.84
X146.3Y-52.38
X146.3Y-54.92
X146.3Y-57.46
X146.3Y-60.0
X146.3Y-62.54
X146.3Y-65.08
X146.3Y-67.62
X146.3Y-70.16
X146.3Y-72.7
X146.3Y-75.24
X146.3Y-77.78
X146.3Y-80.32
X146.3Y-82.86
X146.3Y-85.4
X146.3Y-87.94
X146.3Y-90.48
X146.3Y-93.02
X146.3Y-95.56
X146.3Y-98.1
X146.3Y-100.95
X148.84Y-37.14
X148.84Y-39.68
X148.84Y-42.22
X148.84Y-44.76
X148.84Y-47.3
X148.84Y-49.84
X148.84Y-52.38
X148.84Y-57.46
X148.84Y-60.0
X148.84Y-62.54
X148.84Y-65.08
X148.84Y-67.62
X148.84Y-70.16
X148.84Y-72.7
X148.84Y-75.24
X148.84Y-77.78
X148.84Y-80.32
X148.84Y-82.86
X148.84Y-85.4
X148.84Y-87.94
X148.84Y-90.48
X148.84Y-93.02
X148.84Y-95.56
X148.84Y-98.1
X148.84Y-100.95
T3
X148.445Y-108.96
X150.945Y-108.96
X151.85Y-43.84
X151.85Y-54.0
T4
X149.4Y-33.56
X151.94Y-33.56
T5
X56.32Y-109.62
X56.32Y-112.16
X58.86Y-109.62
X58.86Y-112.16
X61.4Y-109.62
X61.4Y-112.16
X63.94Y-109.62
X63.94Y-112.16
X66.48Y-109.62
X66.48Y-112.16
X69.02Y-109.62
X69.02Y-112.16
X71.56Y-109.62
X71.56Y-112.16
X74.1Y-109.62
X74.1Y-112.16
X76.64Y-109.62
X76.64Y-112.16
X79.18Y-109.62
X79.18Y-112.16
X81.72Y-109.62
X81.72Y-112.16
X84.26Y-109.62
X84.26Y-112.16
X86.8Y-109.62
X86.8Y-112.16
X89.34Y-109.62
X89.34Y-112.16
X91.88Y-109.62
X91.88Y-112.16
X94.42Y-109.62
X94.42Y-112.16
X96.96Y-109.62
X96.96Y-112.16
X99.5Y-109.62
X99.5Y-112.16
X102.04Y-109.62
X102.04Y-112.16
X104.58Y-109.62
X104.58Y-112.16
X107.12Y-109.62
X107.12Y-112.16
X109.66Y-109.62
X109.66Y-112.16
X112.2Y-109.62
X112.2Y-112.16
X114.74Y-109.62
X114.74Y-112.16
X117.28Y-109.62
X117.28Y-112.16
T0
M30
