M48
; DRILL file {KiCad 7.0.7} date 2024 July 02, Tuesday 20:52:17
; FORMAT={-:-/ absolute / metric / decimal}
; #@! TF.CreationDate,2024-07-02T20:52:17-05:00
; #@! TF.GenerationSoftware,Kicad,Pcbnew,7.0.7
; #@! TF.FileFunction,Plated,1,2,PTH
FMAT,2
METRIC
; #@! TA.AperFunction,Plated,PTH,ViaDrill
T1C0.300
; #@! TA.AperFunction,Plated,PTH,ComponentDrill
T2C0.500
; #@! TA.AperFunction,Plated,PTH,ComponentDrill
T3C0.700
; #@! TA.AperFunction,Plated,PTH,ComponentDrill
T4C0.762
; #@! TA.AperFunction,Plated,PTH,ComponentDrill
T5C0.800
; #@! TA.AperFunction,Plated,PTH,ComponentDrill
T6C0.900
; #@! TA.AperFunction,Plated,PTH,ComponentDrill
T7C1.000
; #@! TA.AperFunction,Plated,PTH,ComponentDrill
T8C2.700
%
G90
G05
T1
X53.96Y-113.88
X66.81Y-62.71
X66.96Y-93.37
X68.5Y-128.75
X69.7Y-63.3
X70.74Y-69.88
X70.84Y-75.01
X71.05Y-126.05
X71.07Y-101.0
X71.65Y-94.66
X71.661Y-80.91
X71.86Y-63.9
X72.065Y-93.405
X73.28Y-62.76
X75.05Y-115.0
X75.08Y-117.93
X75.4Y-83.81
X76.9Y-64.409
X79.65Y-87.04
X79.84Y-63.66
X80.62Y-105.0
X80.626Y-106.044
X80.65Y-109.39
X80.65Y-111.09
X80.65Y-106.89
X80.65Y-107.7
X80.65Y-108.51
X80.65Y-110.269
X80.89Y-64.55
X80.9Y-63.67
X81.29Y-94.46
X81.92Y-95.43
X81.92Y-96.58
X81.94Y-101.09
X89.04Y-96.009
X89.05Y-108.821
X89.15Y-120.0
X92.34Y-137.9
X92.656Y-108.23
X93.2Y-147.08
X95.209Y-104.1
X97.03Y-89.8
X97.37Y-109.961
X97.749Y-102.55
X98.43Y-96.009
X99.4Y-134.0
X99.8Y-104.17
X100.3Y-108.801
X101.69Y-96.59
X103.699Y-93.495
X103.92Y-105.575
X104.65Y-109.39
X105.369Y-103.35
X105.9Y-132.51
X107.0Y-134.8
X107.789Y-114.36
X107.91Y-99.376
X107.96Y-101.1
X107.982Y-109.197
X108.03Y-104.97
X108.18Y-80.95
X108.45Y-132.52
X109.46Y-120.6
X110.467Y-101.1
X110.94Y-113.55
X111.88Y-99.376
X112.0Y-121.2
X112.019Y-96.89
X112.06Y-137.9
X112.597Y-100.538
X113.28Y-96.06
X114.43Y-96.89
X114.54Y-121.8
X115.529Y-97.7
X116.6Y-122.4
X116.98Y-96.1
X118.02Y-113.55
X118.02Y-114.36
X118.069Y-95.26
X118.5Y-122.4
X119.594Y-103.365
X119.6Y-101.7
X119.6Y-102.55
X119.605Y-104.175
X119.64Y-99.957
X119.938Y-120.0
X120.6Y-63.159
X120.612Y-63.969
X121.1Y-120.6
X121.1Y-132.1
X121.5Y-99.96
X121.512Y-95.282
X121.55Y-96.09
X121.55Y-96.9
X121.55Y-97.71
X121.7Y-121.2
X121.719Y-132.7
X122.23Y-101.109
X122.25Y-104.8
X122.28Y-133.284
X122.3Y-121.8
X122.9Y-134.0
X123.6Y-134.8
X132.3Y-92.42
X132.3Y-111.4
T2
X52.975Y-55.0
X52.975Y-145.0
X53.568Y-53.568
X53.568Y-56.432
X53.568Y-143.568
X53.568Y-146.432
X55.0Y-52.975
X55.0Y-57.025
X55.0Y-142.975
X55.0Y-147.025
X56.432Y-53.568
X56.432Y-56.432
X56.432Y-143.568
X56.432Y-146.432
X57.025Y-55.0
X57.025Y-145.0
X142.975Y-55.0
X142.975Y-145.0
X143.568Y-53.568
X143.568Y-56.432
X143.568Y-143.568
X143.568Y-146.432
X145.0Y-52.975
X145.0Y-57.025
X145.0Y-142.975
X145.0Y-147.025
X146.432Y-53.568
X146.432Y-56.432
X146.432Y-143.568
X146.432Y-146.432
X147.025Y-55.0
X147.025Y-145.0
T3
X65.54Y-127.01
X65.54Y-134.63
X120.53Y-69.89
X120.53Y-77.51
X123.96Y-69.88
X123.96Y-77.5
X123.97Y-59.69
X123.97Y-67.31
X147.5Y-59.78
X147.5Y-67.4
X147.5Y-72.5
X147.5Y-80.12
T4
X55.5Y-61.01
X55.5Y-66.09
X55.5Y-82.5
X55.5Y-87.58
X58.04Y-61.01
X58.04Y-66.09
X58.04Y-82.5
X58.04Y-87.58
X60.58Y-61.01
X60.58Y-66.09
X60.58Y-82.5
X60.58Y-87.58
X63.12Y-61.01
X63.12Y-66.09
X63.12Y-82.5
X63.12Y-87.58
X65.66Y-61.01
X65.66Y-66.09
X65.66Y-82.5
X65.66Y-87.58
X68.2Y-61.01
X68.2Y-66.09
X68.2Y-82.5
X68.2Y-87.58
X70.74Y-61.01
X70.74Y-66.09
X70.74Y-82.5
X70.74Y-87.58
X73.28Y-61.01
X73.28Y-66.09
X73.28Y-82.5
X73.28Y-87.58
X75.82Y-61.01
X75.82Y-66.09
X75.82Y-82.5
X75.82Y-87.58
X78.36Y-61.01
X78.36Y-66.09
X78.36Y-82.5
X78.36Y-87.58
X80.9Y-61.01
X80.9Y-66.09
X80.9Y-82.5
X80.9Y-87.58
X83.44Y-61.01
X83.44Y-66.09
X83.44Y-82.5
X83.44Y-87.58
X85.98Y-61.01
X85.98Y-66.09
X85.98Y-82.5
X85.98Y-87.58
X88.52Y-61.01
X88.52Y-66.09
X88.52Y-82.5
X88.52Y-87.58
X91.06Y-61.01
X91.06Y-66.09
X91.06Y-82.5
X91.06Y-87.58
X93.6Y-61.01
X93.6Y-66.09
X93.6Y-82.5
X93.6Y-87.58
X96.14Y-66.09
X96.14Y-87.58
X96.16Y-61.02
X96.16Y-82.51
X98.68Y-66.09
X98.68Y-87.58
X98.7Y-61.02
X98.7Y-82.51
X101.22Y-66.09
X101.22Y-87.58
X101.24Y-61.02
X101.24Y-82.51
X103.76Y-66.09
X103.76Y-87.58
X103.78Y-61.02
X103.78Y-82.51
X106.3Y-66.09
X106.3Y-87.58
X106.32Y-61.02
X106.32Y-82.51
X108.84Y-66.09
X108.84Y-87.58
X108.86Y-61.02
X108.86Y-82.51
X111.38Y-66.09
X111.38Y-87.58
X111.39Y-61.02
X111.39Y-82.51
X113.92Y-61.02
X113.92Y-66.09
X113.92Y-82.51
X113.92Y-87.58
X116.46Y-61.02
X116.46Y-66.09
X116.46Y-82.51
X116.46Y-87.58
X126.4Y-53.59
X127.67Y-55.36
X128.94Y-53.59
T5
X52.9Y-91.9
X52.9Y-94.4
X52.9Y-103.45
X52.9Y-105.95
X55.4Y-73.05
X55.4Y-75.55
X55.81Y-115.1
X55.81Y-122.72
X58.3Y-91.85
X58.3Y-99.47
X58.34Y-103.45
X58.34Y-111.07
X58.35Y-115.1
X58.35Y-122.72
X60.84Y-91.85
X60.84Y-99.47
X60.88Y-103.45
X60.88Y-111.07
X60.89Y-115.1
X60.89Y-122.72
X63.38Y-91.85
X63.38Y-99.47
X63.42Y-103.45
X63.42Y-111.07
X63.43Y-115.1
X63.43Y-122.72
X65.92Y-91.85
X65.92Y-99.47
X65.96Y-103.45
X65.96Y-111.07
X65.97Y-115.1
X65.97Y-122.72
X68.46Y-91.85
X68.46Y-99.47
X68.5Y-103.45
X68.5Y-111.07
X68.51Y-115.1
X68.51Y-122.72
X71.0Y-91.85
X71.0Y-99.47
X71.04Y-103.45
X71.04Y-111.07
X71.05Y-115.1
X71.05Y-122.72
X73.54Y-91.85
X73.54Y-99.47
X73.58Y-103.45
X73.58Y-111.07
X73.59Y-115.1
X73.59Y-122.72
X80.5Y-91.85
X82.95Y-111.41
X82.95Y-113.91
X83.0Y-91.85
X86.5Y-91.86
X86.5Y-107.1
X86.6Y-111.36
X86.6Y-126.6
X89.04Y-91.86
X89.04Y-107.1
X89.14Y-111.36
X89.14Y-126.6
X91.58Y-91.86
X91.58Y-107.1
X91.68Y-111.36
X91.68Y-126.6
X91.74Y-130.4
X91.74Y-145.64
X94.12Y-91.86
X94.12Y-107.1
X94.22Y-111.36
X94.22Y-126.6
X94.28Y-130.4
X94.28Y-145.64
X96.66Y-91.86
X96.66Y-107.1
X96.76Y-111.36
X96.76Y-126.6
X96.82Y-130.4
X96.82Y-145.64
X99.2Y-91.86
X99.2Y-107.1
X99.3Y-111.36
X99.3Y-126.6
X99.36Y-130.4
X99.36Y-145.64
X101.74Y-91.86
X101.74Y-107.1
X101.84Y-111.36
X101.84Y-126.6
X101.9Y-130.4
X101.9Y-145.64
X104.28Y-91.86
X104.28Y-107.1
X104.38Y-111.36
X104.38Y-126.6
X104.44Y-130.4
X104.44Y-145.64
X106.82Y-91.86
X106.82Y-107.1
X106.92Y-111.36
X106.92Y-126.6
X106.98Y-130.4
X106.98Y-145.64
X109.36Y-91.86
X109.36Y-107.1
X109.46Y-111.36
X109.46Y-126.6
X109.52Y-130.4
X109.52Y-145.64
X111.9Y-91.86
X111.9Y-107.1
X112.0Y-111.36
X112.0Y-126.6
X112.06Y-130.4
X112.06Y-145.64
X114.44Y-91.86
X114.44Y-107.1
X114.54Y-111.36
X114.54Y-126.6
X114.6Y-130.4
X114.6Y-145.64
X116.98Y-91.86
X116.98Y-107.1
X117.08Y-111.36
X117.08Y-126.6
X117.14Y-130.4
X117.14Y-145.64
X119.52Y-91.86
X119.52Y-107.1
X119.62Y-111.36
X119.62Y-126.6
X119.68Y-130.4
X119.68Y-145.64
X121.6Y-52.86
X121.6Y-55.36
X122.68Y-80.1
X125.18Y-80.1
X128.26Y-62.31
X128.26Y-64.85
X128.26Y-67.39
X128.26Y-69.93
X128.26Y-72.47
X128.26Y-75.01
X128.26Y-77.55
X128.26Y-80.09
X128.26Y-82.63
X128.26Y-85.17
X128.26Y-87.71
X128.26Y-90.25
X128.26Y-92.79
X128.26Y-95.33
X128.26Y-97.87
X128.26Y-100.41
X128.26Y-102.95
X128.26Y-105.49
X128.26Y-108.03
X128.26Y-110.57
X129.86Y-116.9
X129.86Y-124.52
X143.5Y-62.31
X143.5Y-64.85
X143.5Y-67.39
X143.5Y-69.93
X143.5Y-72.47
X143.5Y-75.01
X143.5Y-77.55
X143.5Y-80.09
X143.5Y-82.63
X143.5Y-85.17
X143.5Y-87.71
X143.5Y-90.25
X143.5Y-92.79
X143.5Y-95.33
X143.5Y-97.87
X143.5Y-100.41
X143.5Y-102.95
X143.5Y-105.49
X143.5Y-108.03
X143.5Y-110.57
X145.1Y-116.9
X145.1Y-124.52
T6
X70.15Y-139.1
X70.15Y-145.1
X70.42Y-132.99
X72.65Y-139.1
X72.65Y-145.1
X72.96Y-132.99
X75.15Y-139.1
X75.15Y-145.1
T7
X61.52Y-53.51
X61.52Y-56.05
X61.95Y-140.61
X61.95Y-143.15
X61.95Y-145.69
X68.19Y-52.64
X68.19Y-55.18
X70.73Y-52.64
X70.73Y-55.18
X73.27Y-52.64
X73.27Y-55.18
X75.81Y-52.64
X75.81Y-55.18
X78.35Y-52.64
X78.35Y-55.18
X80.89Y-52.64
X80.89Y-55.18
X82.7Y-144.3
X83.43Y-52.64
X83.43Y-55.18
X85.97Y-52.64
X85.97Y-55.18
X88.51Y-52.64
X88.51Y-55.18
X91.05Y-52.64
X91.05Y-55.18
X93.59Y-52.64
X93.59Y-55.18
X96.13Y-52.64
X96.13Y-55.18
X98.67Y-52.64
X98.67Y-55.18
X101.21Y-52.64
X101.21Y-55.18
X103.75Y-52.64
X103.75Y-55.18
X106.29Y-52.64
X106.29Y-55.18
X108.83Y-52.64
X108.83Y-55.18
X111.37Y-52.64
X111.37Y-55.18
X113.91Y-52.64
X113.91Y-55.18
X116.45Y-52.64
X116.45Y-55.18
X124.1Y-119.32
X124.1Y-121.86
X124.1Y-124.4
X129.3Y-131.08
X131.84Y-131.08
X133.21Y-53.17
X133.21Y-57.67
X138.0Y-131.1
X138.0Y-133.64
X138.0Y-136.18
X138.0Y-138.72
X138.0Y-141.26
X138.0Y-143.8
X139.71Y-53.17
X139.71Y-57.67
T8
X55.0Y-55.0
X55.0Y-145.0
X145.0Y-55.0
X145.0Y-145.0
T7
G00X54.0Y-131.25
M15
G01X54.0Y-133.25
M16
G05
G00X56.0Y-136.95
M15
G01X58.0Y-136.95
M16
G05
G00X60.0Y-131.25
M15
G01X60.0Y-133.25
M16
G05
T0
M30
