G04 #@! TF.GenerationSoftware,KiCad,Pcbnew,7.0.7*
G04 #@! TF.CreationDate,2024-07-02T20:52:08-05:00*
G04 #@! TF.ProjectId,simple6502,73696d70-6c65-4363-9530-322e6b696361,1.6*
G04 #@! TF.SameCoordinates,Original*
G04 #@! TF.FileFunction,Legend,Bot*
G04 #@! TF.FilePolarity,Positive*
%FSLAX46Y46*%
G04 Gerber Fmt 4.6, Leading zero omitted, Abs format (unit mm)*
G04 Created by KiCad (PCBNEW 7.0.7) date 2024-07-02 20:52:08*
%MOMM*%
%LPD*%
G01*
G04 APERTURE LIST*
G04 Aperture macros list*
%AMRoundRect*
0 Rectangle with rounded corners*
0 $1 Rounding radius*
0 $2 $3 $4 $5 $6 $7 $8 $9 X,Y pos of 4 corners*
0 Add a 4 corners polygon primitive as box body*
4,1,4,$2,$3,$4,$5,$6,$7,$8,$9,$2,$3,0*
0 Add four circle primitives for the rounded corners*
1,1,$1+$1,$2,$3*
1,1,$1+$1,$4,$5*
1,1,$1+$1,$6,$7*
1,1,$1+$1,$8,$9*
0 Add four rect primitives between the rounded corners*
20,1,$1+$1,$2,$3,$4,$5,0*
20,1,$1+$1,$4,$5,$6,$7,0*
20,1,$1+$1,$6,$7,$8,$9,0*
20,1,$1+$1,$8,$9,$2,$3,0*%
%AMFreePoly0*
4,1,19,0.500000,-0.750000,0.000000,-0.750000,0.000000,-0.744911,-0.071157,-0.744911,-0.207708,-0.704816,-0.327430,-0.627875,-0.420627,-0.520320,-0.479746,-0.390866,-0.500000,-0.250000,-0.500000,0.250000,-0.479746,0.390866,-0.420627,0.520320,-0.327430,0.627875,-0.207708,0.704816,-0.071157,0.744911,0.000000,0.744911,0.000000,0.750000,0.500000,0.750000,0.500000,-0.750000,0.500000,-0.750000,
$1*%
%AMFreePoly1*
4,1,19,0.000000,0.744911,0.071157,0.744911,0.207708,0.704816,0.327430,0.627875,0.420627,0.520320,0.479746,0.390866,0.500000,0.250000,0.500000,-0.250000,0.479746,-0.390866,0.420627,-0.520320,0.327430,-0.627875,0.207708,-0.704816,0.071157,-0.744911,0.000000,-0.744911,0.000000,-0.750000,-0.500000,-0.750000,-0.500000,0.750000,0.000000,0.750000,0.000000,0.744911,0.000000,0.744911,
$1*%
G04 Aperture macros list end*
%ADD10C,0.150000*%
%ADD11C,0.120000*%
%ADD12R,1.600000X1.600000*%
%ADD13O,1.600000X1.600000*%
%ADD14C,1.600000*%
%ADD15C,1.400000*%
%ADD16O,1.400000X1.400000*%
%ADD17R,1.524000X1.524000*%
%ADD18C,1.524000*%
%ADD19RoundRect,0.102000X0.635000X0.635000X-0.635000X0.635000X-0.635000X-0.635000X0.635000X-0.635000X0*%
%ADD20C,1.474000*%
%ADD21R,1.800000X1.800000*%
%ADD22C,1.800000*%
%ADD23R,1.700000X1.700000*%
%ADD24O,1.700000X1.700000*%
%ADD25C,0.800000*%
%ADD26C,5.400000*%
%ADD27R,3.500000X3.500000*%
%ADD28RoundRect,0.750000X-0.750000X-1.000000X0.750000X-1.000000X0.750000X1.000000X-0.750000X1.000000X0*%
%ADD29RoundRect,0.875000X-0.875000X-0.875000X0.875000X-0.875000X0.875000X0.875000X-0.875000X0.875000X0*%
%ADD30C,1.700000*%
%ADD31FreePoly0,180.000000*%
%ADD32FreePoly1,180.000000*%
G04 APERTURE END LIST*
D10*
X137573696Y-56014295D02*
X137840363Y-55633342D01*
X138030839Y-56014295D02*
X138030839Y-55214295D01*
X138030839Y-55214295D02*
X137726077Y-55214295D01*
X137726077Y-55214295D02*
X137649887Y-55252390D01*
X137649887Y-55252390D02*
X137611792Y-55290485D01*
X137611792Y-55290485D02*
X137573696Y-55366676D01*
X137573696Y-55366676D02*
X137573696Y-55480961D01*
X137573696Y-55480961D02*
X137611792Y-55557152D01*
X137611792Y-55557152D02*
X137649887Y-55595247D01*
X137649887Y-55595247D02*
X137726077Y-55633342D01*
X137726077Y-55633342D02*
X138030839Y-55633342D01*
X137230839Y-55595247D02*
X136964173Y-55595247D01*
X136849887Y-56014295D02*
X137230839Y-56014295D01*
X137230839Y-56014295D02*
X137230839Y-55214295D01*
X137230839Y-55214295D02*
X136849887Y-55214295D01*
X136545125Y-55976200D02*
X136430839Y-56014295D01*
X136430839Y-56014295D02*
X136240363Y-56014295D01*
X136240363Y-56014295D02*
X136164172Y-55976200D01*
X136164172Y-55976200D02*
X136126077Y-55938104D01*
X136126077Y-55938104D02*
X136087982Y-55861914D01*
X136087982Y-55861914D02*
X136087982Y-55785723D01*
X136087982Y-55785723D02*
X136126077Y-55709533D01*
X136126077Y-55709533D02*
X136164172Y-55671438D01*
X136164172Y-55671438D02*
X136240363Y-55633342D01*
X136240363Y-55633342D02*
X136392744Y-55595247D01*
X136392744Y-55595247D02*
X136468934Y-55557152D01*
X136468934Y-55557152D02*
X136507029Y-55519057D01*
X136507029Y-55519057D02*
X136545125Y-55442866D01*
X136545125Y-55442866D02*
X136545125Y-55366676D01*
X136545125Y-55366676D02*
X136507029Y-55290485D01*
X136507029Y-55290485D02*
X136468934Y-55252390D01*
X136468934Y-55252390D02*
X136392744Y-55214295D01*
X136392744Y-55214295D02*
X136202267Y-55214295D01*
X136202267Y-55214295D02*
X136087982Y-55252390D01*
X135745124Y-55595247D02*
X135478458Y-55595247D01*
X135364172Y-56014295D02*
X135745124Y-56014295D01*
X135745124Y-56014295D02*
X135745124Y-55214295D01*
X135745124Y-55214295D02*
X135364172Y-55214295D01*
X135135600Y-55214295D02*
X134678457Y-55214295D01*
X134907029Y-56014295D02*
X134907029Y-55214295D01*
X138141316Y-54992200D02*
X134682267Y-54992200D01*
X54773160Y-67886942D02*
X54820779Y-67934561D01*
X54820779Y-67934561D02*
X54916017Y-67982180D01*
X54916017Y-67982180D02*
X55154112Y-67982180D01*
X55154112Y-67982180D02*
X55249350Y-67934561D01*
X55249350Y-67934561D02*
X55296969Y-67886942D01*
X55296969Y-67886942D02*
X55344588Y-67791704D01*
X55344588Y-67791704D02*
X55344588Y-67696466D01*
X55344588Y-67696466D02*
X55296969Y-67553609D01*
X55296969Y-67553609D02*
X54725541Y-66982180D01*
X54725541Y-66982180D02*
X55344588Y-66982180D01*
X56201731Y-67982180D02*
X56011255Y-67982180D01*
X56011255Y-67982180D02*
X55916017Y-67934561D01*
X55916017Y-67934561D02*
X55868398Y-67886942D01*
X55868398Y-67886942D02*
X55773160Y-67744085D01*
X55773160Y-67744085D02*
X55725541Y-67553609D01*
X55725541Y-67553609D02*
X55725541Y-67172657D01*
X55725541Y-67172657D02*
X55773160Y-67077419D01*
X55773160Y-67077419D02*
X55820779Y-67029800D01*
X55820779Y-67029800D02*
X55916017Y-66982180D01*
X55916017Y-66982180D02*
X56106493Y-66982180D01*
X56106493Y-66982180D02*
X56201731Y-67029800D01*
X56201731Y-67029800D02*
X56249350Y-67077419D01*
X56249350Y-67077419D02*
X56296969Y-67172657D01*
X56296969Y-67172657D02*
X56296969Y-67410752D01*
X56296969Y-67410752D02*
X56249350Y-67505990D01*
X56249350Y-67505990D02*
X56201731Y-67553609D01*
X56201731Y-67553609D02*
X56106493Y-67601228D01*
X56106493Y-67601228D02*
X55916017Y-67601228D01*
X55916017Y-67601228D02*
X55820779Y-67553609D01*
X55820779Y-67553609D02*
X55773160Y-67505990D01*
X55773160Y-67505990D02*
X55725541Y-67410752D01*
X116256969Y-67982180D02*
X115780779Y-67982180D01*
X115780779Y-67982180D02*
X115733160Y-67505990D01*
X115733160Y-67505990D02*
X115780779Y-67553609D01*
X115780779Y-67553609D02*
X115876017Y-67601228D01*
X115876017Y-67601228D02*
X116114112Y-67601228D01*
X116114112Y-67601228D02*
X116209350Y-67553609D01*
X116209350Y-67553609D02*
X116256969Y-67505990D01*
X116256969Y-67505990D02*
X116304588Y-67410752D01*
X116304588Y-67410752D02*
X116304588Y-67172657D01*
X116304588Y-67172657D02*
X116256969Y-67077419D01*
X116256969Y-67077419D02*
X116209350Y-67029800D01*
X116209350Y-67029800D02*
X116114112Y-66982180D01*
X116114112Y-66982180D02*
X115876017Y-66982180D01*
X115876017Y-66982180D02*
X115780779Y-67029800D01*
X115780779Y-67029800D02*
X115733160Y-67077419D01*
X116923636Y-67982180D02*
X117018874Y-67982180D01*
X117018874Y-67982180D02*
X117114112Y-67934561D01*
X117114112Y-67934561D02*
X117161731Y-67886942D01*
X117161731Y-67886942D02*
X117209350Y-67791704D01*
X117209350Y-67791704D02*
X117256969Y-67601228D01*
X117256969Y-67601228D02*
X117256969Y-67363133D01*
X117256969Y-67363133D02*
X117209350Y-67172657D01*
X117209350Y-67172657D02*
X117161731Y-67077419D01*
X117161731Y-67077419D02*
X117114112Y-67029800D01*
X117114112Y-67029800D02*
X117018874Y-66982180D01*
X117018874Y-66982180D02*
X116923636Y-66982180D01*
X116923636Y-66982180D02*
X116828398Y-67029800D01*
X116828398Y-67029800D02*
X116780779Y-67077419D01*
X116780779Y-67077419D02*
X116733160Y-67172657D01*
X116733160Y-67172657D02*
X116685541Y-67363133D01*
X116685541Y-67363133D02*
X116685541Y-67601228D01*
X116685541Y-67601228D02*
X116733160Y-67791704D01*
X116733160Y-67791704D02*
X116780779Y-67886942D01*
X116780779Y-67886942D02*
X116828398Y-67934561D01*
X116828398Y-67934561D02*
X116923636Y-67982180D01*
X54773160Y-60012942D02*
X54820779Y-60060561D01*
X54820779Y-60060561D02*
X54916017Y-60108180D01*
X54916017Y-60108180D02*
X55154112Y-60108180D01*
X55154112Y-60108180D02*
X55249350Y-60060561D01*
X55249350Y-60060561D02*
X55296969Y-60012942D01*
X55296969Y-60012942D02*
X55344588Y-59917704D01*
X55344588Y-59917704D02*
X55344588Y-59822466D01*
X55344588Y-59822466D02*
X55296969Y-59679609D01*
X55296969Y-59679609D02*
X54725541Y-59108180D01*
X54725541Y-59108180D02*
X55344588Y-59108180D01*
X56249350Y-60108180D02*
X55773160Y-60108180D01*
X55773160Y-60108180D02*
X55725541Y-59631990D01*
X55725541Y-59631990D02*
X55773160Y-59679609D01*
X55773160Y-59679609D02*
X55868398Y-59727228D01*
X55868398Y-59727228D02*
X56106493Y-59727228D01*
X56106493Y-59727228D02*
X56201731Y-59679609D01*
X56201731Y-59679609D02*
X56249350Y-59631990D01*
X56249350Y-59631990D02*
X56296969Y-59536752D01*
X56296969Y-59536752D02*
X56296969Y-59298657D01*
X56296969Y-59298657D02*
X56249350Y-59203419D01*
X56249350Y-59203419D02*
X56201731Y-59155800D01*
X56201731Y-59155800D02*
X56106493Y-59108180D01*
X56106493Y-59108180D02*
X55868398Y-59108180D01*
X55868398Y-59108180D02*
X55773160Y-59155800D01*
X55773160Y-59155800D02*
X55725541Y-59203419D01*
X116812588Y-59108180D02*
X116241160Y-59108180D01*
X116526874Y-59108180D02*
X116526874Y-60108180D01*
X116526874Y-60108180D02*
X116431636Y-59965323D01*
X116431636Y-59965323D02*
X116336398Y-59870085D01*
X116336398Y-59870085D02*
X116241160Y-59822466D01*
X54773160Y-89376942D02*
X54820779Y-89424561D01*
X54820779Y-89424561D02*
X54916017Y-89472180D01*
X54916017Y-89472180D02*
X55154112Y-89472180D01*
X55154112Y-89472180D02*
X55249350Y-89424561D01*
X55249350Y-89424561D02*
X55296969Y-89376942D01*
X55296969Y-89376942D02*
X55344588Y-89281704D01*
X55344588Y-89281704D02*
X55344588Y-89186466D01*
X55344588Y-89186466D02*
X55296969Y-89043609D01*
X55296969Y-89043609D02*
X54725541Y-88472180D01*
X54725541Y-88472180D02*
X55344588Y-88472180D01*
X56201731Y-89472180D02*
X56011255Y-89472180D01*
X56011255Y-89472180D02*
X55916017Y-89424561D01*
X55916017Y-89424561D02*
X55868398Y-89376942D01*
X55868398Y-89376942D02*
X55773160Y-89234085D01*
X55773160Y-89234085D02*
X55725541Y-89043609D01*
X55725541Y-89043609D02*
X55725541Y-88662657D01*
X55725541Y-88662657D02*
X55773160Y-88567419D01*
X55773160Y-88567419D02*
X55820779Y-88519800D01*
X55820779Y-88519800D02*
X55916017Y-88472180D01*
X55916017Y-88472180D02*
X56106493Y-88472180D01*
X56106493Y-88472180D02*
X56201731Y-88519800D01*
X56201731Y-88519800D02*
X56249350Y-88567419D01*
X56249350Y-88567419D02*
X56296969Y-88662657D01*
X56296969Y-88662657D02*
X56296969Y-88900752D01*
X56296969Y-88900752D02*
X56249350Y-88995990D01*
X56249350Y-88995990D02*
X56201731Y-89043609D01*
X56201731Y-89043609D02*
X56106493Y-89091228D01*
X56106493Y-89091228D02*
X55916017Y-89091228D01*
X55916017Y-89091228D02*
X55820779Y-89043609D01*
X55820779Y-89043609D02*
X55773160Y-88995990D01*
X55773160Y-88995990D02*
X55725541Y-88900752D01*
X116812588Y-80598180D02*
X116241160Y-80598180D01*
X116526874Y-80598180D02*
X116526874Y-81598180D01*
X116526874Y-81598180D02*
X116431636Y-81455323D01*
X116431636Y-81455323D02*
X116336398Y-81360085D01*
X116336398Y-81360085D02*
X116241160Y-81312466D01*
X54773160Y-81502942D02*
X54820779Y-81550561D01*
X54820779Y-81550561D02*
X54916017Y-81598180D01*
X54916017Y-81598180D02*
X55154112Y-81598180D01*
X55154112Y-81598180D02*
X55249350Y-81550561D01*
X55249350Y-81550561D02*
X55296969Y-81502942D01*
X55296969Y-81502942D02*
X55344588Y-81407704D01*
X55344588Y-81407704D02*
X55344588Y-81312466D01*
X55344588Y-81312466D02*
X55296969Y-81169609D01*
X55296969Y-81169609D02*
X54725541Y-80598180D01*
X54725541Y-80598180D02*
X55344588Y-80598180D01*
X56249350Y-81598180D02*
X55773160Y-81598180D01*
X55773160Y-81598180D02*
X55725541Y-81121990D01*
X55725541Y-81121990D02*
X55773160Y-81169609D01*
X55773160Y-81169609D02*
X55868398Y-81217228D01*
X55868398Y-81217228D02*
X56106493Y-81217228D01*
X56106493Y-81217228D02*
X56201731Y-81169609D01*
X56201731Y-81169609D02*
X56249350Y-81121990D01*
X56249350Y-81121990D02*
X56296969Y-81026752D01*
X56296969Y-81026752D02*
X56296969Y-80788657D01*
X56296969Y-80788657D02*
X56249350Y-80693419D01*
X56249350Y-80693419D02*
X56201731Y-80645800D01*
X56201731Y-80645800D02*
X56106493Y-80598180D01*
X56106493Y-80598180D02*
X55868398Y-80598180D01*
X55868398Y-80598180D02*
X55773160Y-80645800D01*
X55773160Y-80645800D02*
X55725541Y-80693419D01*
X116256969Y-89472180D02*
X115780779Y-89472180D01*
X115780779Y-89472180D02*
X115733160Y-88995990D01*
X115733160Y-88995990D02*
X115780779Y-89043609D01*
X115780779Y-89043609D02*
X115876017Y-89091228D01*
X115876017Y-89091228D02*
X116114112Y-89091228D01*
X116114112Y-89091228D02*
X116209350Y-89043609D01*
X116209350Y-89043609D02*
X116256969Y-88995990D01*
X116256969Y-88995990D02*
X116304588Y-88900752D01*
X116304588Y-88900752D02*
X116304588Y-88662657D01*
X116304588Y-88662657D02*
X116256969Y-88567419D01*
X116256969Y-88567419D02*
X116209350Y-88519800D01*
X116209350Y-88519800D02*
X116114112Y-88472180D01*
X116114112Y-88472180D02*
X115876017Y-88472180D01*
X115876017Y-88472180D02*
X115780779Y-88519800D01*
X115780779Y-88519800D02*
X115733160Y-88567419D01*
X116923636Y-89472180D02*
X117018874Y-89472180D01*
X117018874Y-89472180D02*
X117114112Y-89424561D01*
X117114112Y-89424561D02*
X117161731Y-89376942D01*
X117161731Y-89376942D02*
X117209350Y-89281704D01*
X117209350Y-89281704D02*
X117256969Y-89091228D01*
X117256969Y-89091228D02*
X117256969Y-88853133D01*
X117256969Y-88853133D02*
X117209350Y-88662657D01*
X117209350Y-88662657D02*
X117161731Y-88567419D01*
X117161731Y-88567419D02*
X117114112Y-88519800D01*
X117114112Y-88519800D02*
X117018874Y-88472180D01*
X117018874Y-88472180D02*
X116923636Y-88472180D01*
X116923636Y-88472180D02*
X116828398Y-88519800D01*
X116828398Y-88519800D02*
X116780779Y-88567419D01*
X116780779Y-88567419D02*
X116733160Y-88662657D01*
X116733160Y-88662657D02*
X116685541Y-88853133D01*
X116685541Y-88853133D02*
X116685541Y-89091228D01*
X116685541Y-89091228D02*
X116733160Y-89281704D01*
X116733160Y-89281704D02*
X116780779Y-89376942D01*
X116780779Y-89376942D02*
X116828398Y-89424561D01*
X116828398Y-89424561D02*
X116923636Y-89472180D01*
X91613333Y-93764819D02*
X91613333Y-94479104D01*
X91613333Y-94479104D02*
X91660952Y-94621961D01*
X91660952Y-94621961D02*
X91756190Y-94717200D01*
X91756190Y-94717200D02*
X91899047Y-94764819D01*
X91899047Y-94764819D02*
X91994285Y-94764819D01*
X91137142Y-94764819D02*
X91137142Y-93764819D01*
X91137142Y-93764819D02*
X90756190Y-93764819D01*
X90756190Y-93764819D02*
X90660952Y-93812438D01*
X90660952Y-93812438D02*
X90613333Y-93860057D01*
X90613333Y-93860057D02*
X90565714Y-93955295D01*
X90565714Y-93955295D02*
X90565714Y-94098152D01*
X90565714Y-94098152D02*
X90613333Y-94193390D01*
X90613333Y-94193390D02*
X90660952Y-94241009D01*
X90660952Y-94241009D02*
X90756190Y-94288628D01*
X90756190Y-94288628D02*
X91137142Y-94288628D01*
X90184761Y-93860057D02*
X90137142Y-93812438D01*
X90137142Y-93812438D02*
X90041904Y-93764819D01*
X90041904Y-93764819D02*
X89803809Y-93764819D01*
X89803809Y-93764819D02*
X89708571Y-93812438D01*
X89708571Y-93812438D02*
X89660952Y-93860057D01*
X89660952Y-93860057D02*
X89613333Y-93955295D01*
X89613333Y-93955295D02*
X89613333Y-94050533D01*
X89613333Y-94050533D02*
X89660952Y-94193390D01*
X89660952Y-94193390D02*
X90232380Y-94764819D01*
X90232380Y-94764819D02*
X89613333Y-94764819D01*
X88618570Y-95704819D02*
X88380475Y-96704819D01*
X88380475Y-96704819D02*
X88189999Y-95990533D01*
X88189999Y-95990533D02*
X87999523Y-96704819D01*
X87999523Y-96704819D02*
X87761428Y-95704819D01*
X86809047Y-96704819D02*
X87142380Y-96228628D01*
X87380475Y-96704819D02*
X87380475Y-95704819D01*
X87380475Y-95704819D02*
X86999523Y-95704819D01*
X86999523Y-95704819D02*
X86904285Y-95752438D01*
X86904285Y-95752438D02*
X86856666Y-95800057D01*
X86856666Y-95800057D02*
X86809047Y-95895295D01*
X86809047Y-95895295D02*
X86809047Y-96038152D01*
X86809047Y-96038152D02*
X86856666Y-96133390D01*
X86856666Y-96133390D02*
X86904285Y-96181009D01*
X86904285Y-96181009D02*
X86999523Y-96228628D01*
X86999523Y-96228628D02*
X87380475Y-96228628D01*
X88661428Y-95427200D02*
X86718571Y-95427200D01*
X132193333Y-59974819D02*
X132193333Y-60689104D01*
X132193333Y-60689104D02*
X132240952Y-60831961D01*
X132240952Y-60831961D02*
X132336190Y-60927200D01*
X132336190Y-60927200D02*
X132479047Y-60974819D01*
X132479047Y-60974819D02*
X132574285Y-60974819D01*
X131669523Y-60974819D02*
X131479047Y-60974819D01*
X131479047Y-60974819D02*
X131383809Y-60927200D01*
X131383809Y-60927200D02*
X131336190Y-60879580D01*
X131336190Y-60879580D02*
X131240952Y-60736723D01*
X131240952Y-60736723D02*
X131193333Y-60546247D01*
X131193333Y-60546247D02*
X131193333Y-60165295D01*
X131193333Y-60165295D02*
X131240952Y-60070057D01*
X131240952Y-60070057D02*
X131288571Y-60022438D01*
X131288571Y-60022438D02*
X131383809Y-59974819D01*
X131383809Y-59974819D02*
X131574285Y-59974819D01*
X131574285Y-59974819D02*
X131669523Y-60022438D01*
X131669523Y-60022438D02*
X131717142Y-60070057D01*
X131717142Y-60070057D02*
X131764761Y-60165295D01*
X131764761Y-60165295D02*
X131764761Y-60403390D01*
X131764761Y-60403390D02*
X131717142Y-60498628D01*
X131717142Y-60498628D02*
X131669523Y-60546247D01*
X131669523Y-60546247D02*
X131574285Y-60593866D01*
X131574285Y-60593866D02*
X131383809Y-60593866D01*
X131383809Y-60593866D02*
X131288571Y-60546247D01*
X131288571Y-60546247D02*
X131240952Y-60498628D01*
X131240952Y-60498628D02*
X131193333Y-60403390D01*
X132693332Y-63884819D02*
X132359999Y-64884819D01*
X132359999Y-64884819D02*
X132026666Y-63884819D01*
X131693332Y-64884819D02*
X131693332Y-63884819D01*
X131693332Y-63884819D02*
X131312380Y-63884819D01*
X131312380Y-63884819D02*
X131217142Y-63932438D01*
X131217142Y-63932438D02*
X131169523Y-63980057D01*
X131169523Y-63980057D02*
X131121904Y-64075295D01*
X131121904Y-64075295D02*
X131121904Y-64218152D01*
X131121904Y-64218152D02*
X131169523Y-64313390D01*
X131169523Y-64313390D02*
X131217142Y-64361009D01*
X131217142Y-64361009D02*
X131312380Y-64408628D01*
X131312380Y-64408628D02*
X131693332Y-64408628D01*
X132688571Y-63607200D02*
X131031428Y-63607200D01*
D11*
X89100000Y-94420000D02*
X89100000Y-93820000D01*
X88400000Y-93120000D02*
X87000000Y-93120000D01*
X87000000Y-95120000D02*
X88400000Y-95120000D01*
X86300000Y-93820000D02*
X86300000Y-94420000D01*
X88400000Y-95120000D02*
G75*
G03*
X89100000Y-94420000I1J699999D01*
G01*
X89100000Y-93820000D02*
G75*
G03*
X88400000Y-93120000I-699999J1D01*
G01*
X86300000Y-94420000D02*
G75*
G03*
X87000000Y-95120000I700000J0D01*
G01*
X87000000Y-93120000D02*
G75*
G03*
X86300000Y-93820000I0J-700000D01*
G01*
X133260000Y-62620000D02*
X133260000Y-62020000D01*
X132560000Y-61320000D02*
X131160000Y-61320000D01*
X131160000Y-63320000D02*
X132560000Y-63320000D01*
X130460000Y-62020000D02*
X130460000Y-62620000D01*
X132560000Y-63320000D02*
G75*
G03*
X133260000Y-62620000I1J699999D01*
G01*
X133260000Y-62020000D02*
G75*
G03*
X132560000Y-61320000I-699999J1D01*
G01*
X130460000Y-62620000D02*
G75*
G03*
X131160000Y-63320000I700000J0D01*
G01*
X131160000Y-61320000D02*
G75*
G03*
X130460000Y-62020000I0J-700000D01*
G01*
%LPC*%
D12*
X55810000Y-122720000D03*
D13*
X58350000Y-122720000D03*
X60890000Y-122720000D03*
X63430000Y-122720000D03*
X65970000Y-122720000D03*
X68510000Y-122720000D03*
X71050000Y-122720000D03*
X73590000Y-122720000D03*
X73590000Y-115100000D03*
X71050000Y-115100000D03*
X68510000Y-115100000D03*
X65970000Y-115100000D03*
X63430000Y-115100000D03*
X60890000Y-115100000D03*
X58350000Y-115100000D03*
X55810000Y-115100000D03*
D12*
X55400000Y-73050000D03*
D14*
X55400000Y-75550000D03*
D15*
X147500000Y-72500000D03*
D16*
X147500000Y-80120000D03*
D15*
X147500000Y-67400000D03*
D16*
X147500000Y-59780000D03*
D17*
X116460000Y-61020000D03*
D18*
X113920000Y-61020000D03*
X111390000Y-61020000D03*
X108860000Y-61020000D03*
X106320000Y-61020000D03*
X103780000Y-61020000D03*
X101240000Y-61020000D03*
X98700000Y-61020000D03*
X96160000Y-61020000D03*
X93600000Y-61010000D03*
X91060000Y-61010000D03*
X88520000Y-61010000D03*
X85980000Y-61010000D03*
X83440000Y-61010000D03*
X80900000Y-61010000D03*
X78360000Y-61010000D03*
X75820000Y-61010000D03*
X73280000Y-61010000D03*
X70740000Y-61010000D03*
X68200000Y-61010000D03*
X65660000Y-61010000D03*
X63120000Y-61010000D03*
X60580000Y-61010000D03*
X58040000Y-61010000D03*
X55500000Y-61010000D03*
X55500000Y-66090000D03*
X58040000Y-66090000D03*
X60580000Y-66090000D03*
X63120000Y-66090000D03*
X65660000Y-66090000D03*
X68200000Y-66090000D03*
X70740000Y-66090000D03*
X73280000Y-66090000D03*
X75820000Y-66090000D03*
X78360000Y-66090000D03*
X80900000Y-66090000D03*
X83440000Y-66090000D03*
X85980000Y-66090000D03*
X88520000Y-66090000D03*
X91060000Y-66090000D03*
X93600000Y-66090000D03*
X96140000Y-66090000D03*
X98680000Y-66090000D03*
X101220000Y-66090000D03*
X103760000Y-66090000D03*
X106300000Y-66090000D03*
X108840000Y-66090000D03*
X111380000Y-66090000D03*
X113920000Y-66090000D03*
X116460000Y-66090000D03*
D14*
X52900000Y-91900000D03*
X52900000Y-94400000D03*
X82950000Y-111410000D03*
X82950000Y-113910000D03*
D15*
X65540000Y-134630000D03*
D16*
X65540000Y-127010000D03*
D19*
X128940000Y-53590000D03*
D20*
X127670000Y-55360000D03*
X126400000Y-53590000D03*
D14*
X52900000Y-103450000D03*
X52900000Y-105950000D03*
D21*
X70420000Y-132990000D03*
D22*
X72960000Y-132990000D03*
D17*
X116460000Y-82510000D03*
D18*
X113920000Y-82510000D03*
X111390000Y-82510000D03*
X108860000Y-82510000D03*
X106320000Y-82510000D03*
X103780000Y-82510000D03*
X101240000Y-82510000D03*
X98700000Y-82510000D03*
X96160000Y-82510000D03*
X93600000Y-82500000D03*
X91060000Y-82500000D03*
X88520000Y-82500000D03*
X85980000Y-82500000D03*
X83440000Y-82500000D03*
X80900000Y-82500000D03*
X78360000Y-82500000D03*
X75820000Y-82500000D03*
X73280000Y-82500000D03*
X70740000Y-82500000D03*
X68200000Y-82500000D03*
X65660000Y-82500000D03*
X63120000Y-82500000D03*
X60580000Y-82500000D03*
X58040000Y-82500000D03*
X55500000Y-82500000D03*
X55500000Y-87580000D03*
X58040000Y-87580000D03*
X60580000Y-87580000D03*
X63120000Y-87580000D03*
X65660000Y-87580000D03*
X68200000Y-87580000D03*
X70740000Y-87580000D03*
X73280000Y-87580000D03*
X75820000Y-87580000D03*
X78360000Y-87580000D03*
X80900000Y-87580000D03*
X83440000Y-87580000D03*
X85980000Y-87580000D03*
X88520000Y-87580000D03*
X91060000Y-87580000D03*
X93600000Y-87580000D03*
X96140000Y-87580000D03*
X98680000Y-87580000D03*
X101220000Y-87580000D03*
X103760000Y-87580000D03*
X106300000Y-87580000D03*
X108840000Y-87580000D03*
X111380000Y-87580000D03*
X113920000Y-87580000D03*
X116460000Y-87580000D03*
D15*
X123960000Y-69880000D03*
D16*
X123960000Y-77500000D03*
D14*
X121600000Y-55360000D03*
X121600000Y-52860000D03*
D23*
X82700000Y-144300000D03*
X61950000Y-140610000D03*
D24*
X61950000Y-143150000D03*
X61950000Y-145690000D03*
D25*
X52975000Y-55000000D03*
X53568109Y-53568109D03*
X53568109Y-56431891D03*
X55000000Y-52975000D03*
D26*
X55000000Y-55000000D03*
D25*
X55000000Y-57025000D03*
X56431891Y-53568109D03*
X56431891Y-56431891D03*
X57025000Y-55000000D03*
D12*
X86600000Y-126600000D03*
D13*
X89140000Y-126600000D03*
X91680000Y-126600000D03*
X94220000Y-126600000D03*
X96760000Y-126600000D03*
X99300000Y-126600000D03*
X101840000Y-126600000D03*
X104380000Y-126600000D03*
X106920000Y-126600000D03*
X109460000Y-126600000D03*
X112000000Y-126600000D03*
X114540000Y-126600000D03*
X117080000Y-126600000D03*
X119620000Y-126600000D03*
X119620000Y-111360000D03*
X117080000Y-111360000D03*
X114540000Y-111360000D03*
X112000000Y-111360000D03*
X109460000Y-111360000D03*
X106920000Y-111360000D03*
X104380000Y-111360000D03*
X101840000Y-111360000D03*
X99300000Y-111360000D03*
X96760000Y-111360000D03*
X94220000Y-111360000D03*
X91680000Y-111360000D03*
X89140000Y-111360000D03*
X86600000Y-111360000D03*
D23*
X124100000Y-124400000D03*
D24*
X124100000Y-121860000D03*
X124100000Y-119320000D03*
D27*
X60000000Y-132250000D03*
D28*
X54000000Y-132250000D03*
D29*
X57000000Y-136950000D03*
D25*
X52975000Y-145000000D03*
X53568109Y-143568109D03*
X53568109Y-146431891D03*
X55000000Y-142975000D03*
D26*
X55000000Y-145000000D03*
D25*
X55000000Y-147025000D03*
X56431891Y-143568109D03*
X56431891Y-146431891D03*
X57025000Y-145000000D03*
D23*
X61520000Y-56050000D03*
D24*
X61520000Y-53510000D03*
D12*
X91740000Y-145640000D03*
D13*
X94280000Y-145640000D03*
X96820000Y-145640000D03*
X99360000Y-145640000D03*
X101900000Y-145640000D03*
X104440000Y-145640000D03*
X106980000Y-145640000D03*
X109520000Y-145640000D03*
X112060000Y-145640000D03*
X114600000Y-145640000D03*
X117140000Y-145640000D03*
X119680000Y-145640000D03*
X119680000Y-130400000D03*
X117140000Y-130400000D03*
X114600000Y-130400000D03*
X112060000Y-130400000D03*
X109520000Y-130400000D03*
X106980000Y-130400000D03*
X104440000Y-130400000D03*
X101900000Y-130400000D03*
X99360000Y-130400000D03*
X96820000Y-130400000D03*
X94280000Y-130400000D03*
X91740000Y-130400000D03*
D15*
X123970000Y-67310000D03*
D16*
X123970000Y-59690000D03*
D23*
X131840000Y-131080000D03*
D24*
X129300000Y-131080000D03*
D21*
X75150000Y-145100000D03*
D22*
X72650000Y-145100000D03*
X70150000Y-145100000D03*
X75150000Y-139100000D03*
X72650000Y-139100000D03*
X70150000Y-139100000D03*
D12*
X128260000Y-62310000D03*
D13*
X128260000Y-64850000D03*
X128260000Y-67390000D03*
X128260000Y-69930000D03*
X128260000Y-72470000D03*
X128260000Y-75010000D03*
X128260000Y-77550000D03*
X128260000Y-80090000D03*
X128260000Y-82630000D03*
X128260000Y-85170000D03*
X128260000Y-87710000D03*
X128260000Y-90250000D03*
X128260000Y-92790000D03*
X128260000Y-95330000D03*
X128260000Y-97870000D03*
X128260000Y-100410000D03*
X128260000Y-102950000D03*
X128260000Y-105490000D03*
X128260000Y-108030000D03*
X128260000Y-110570000D03*
X143500000Y-110570000D03*
X143500000Y-108030000D03*
X143500000Y-105490000D03*
X143500000Y-102950000D03*
X143500000Y-100410000D03*
X143500000Y-97870000D03*
X143500000Y-95330000D03*
X143500000Y-92790000D03*
X143500000Y-90250000D03*
X143500000Y-87710000D03*
X143500000Y-85170000D03*
X143500000Y-82630000D03*
X143500000Y-80090000D03*
X143500000Y-77550000D03*
X143500000Y-75010000D03*
X143500000Y-72470000D03*
X143500000Y-69930000D03*
X143500000Y-67390000D03*
X143500000Y-64850000D03*
X143500000Y-62310000D03*
D23*
X116450000Y-52640000D03*
D24*
X116450000Y-55180000D03*
X113910000Y-52640000D03*
X113910000Y-55180000D03*
X111370000Y-52640000D03*
X111370000Y-55180000D03*
X108830000Y-52640000D03*
X108830000Y-55180000D03*
X106290000Y-52640000D03*
X106290000Y-55180000D03*
X103750000Y-52640000D03*
X103750000Y-55180000D03*
X101210000Y-52640000D03*
X101210000Y-55180000D03*
X98670000Y-52640000D03*
X98670000Y-55180000D03*
X96130000Y-52640000D03*
X96130000Y-55180000D03*
X93590000Y-52640000D03*
X93590000Y-55180000D03*
X91050000Y-52640000D03*
X91050000Y-55180000D03*
X88510000Y-52640000D03*
X88510000Y-55180000D03*
X85970000Y-52640000D03*
X85970000Y-55180000D03*
X83430000Y-52640000D03*
X83430000Y-55180000D03*
X80890000Y-52640000D03*
X80890000Y-55180000D03*
X78350000Y-52640000D03*
X78350000Y-55180000D03*
X75810000Y-52640000D03*
X75810000Y-55180000D03*
X73270000Y-52640000D03*
X73270000Y-55180000D03*
X70730000Y-52640000D03*
X70730000Y-55180000D03*
X68190000Y-52640000D03*
X68190000Y-55180000D03*
D23*
X138000000Y-131100000D03*
D24*
X138000000Y-133640000D03*
X138000000Y-136180000D03*
X138000000Y-138720000D03*
X138000000Y-141260000D03*
X138000000Y-143800000D03*
D23*
X133210000Y-53170000D03*
D30*
X139710000Y-53170000D03*
X133210000Y-57670000D03*
X139710000Y-57670000D03*
D15*
X120530000Y-69890000D03*
D16*
X120530000Y-77510000D03*
D12*
X58340000Y-111070000D03*
D13*
X60880000Y-111070000D03*
X63420000Y-111070000D03*
X65960000Y-111070000D03*
X68500000Y-111070000D03*
X71040000Y-111070000D03*
X73580000Y-111070000D03*
X73580000Y-103450000D03*
X71040000Y-103450000D03*
X68500000Y-103450000D03*
X65960000Y-103450000D03*
X63420000Y-103450000D03*
X60880000Y-103450000D03*
X58340000Y-103450000D03*
D12*
X145100000Y-116900000D03*
D14*
X129860000Y-116900000D03*
X129860000Y-124520000D03*
X145100000Y-124520000D03*
D12*
X86500000Y-107100000D03*
D13*
X89040000Y-107100000D03*
X91580000Y-107100000D03*
X94120000Y-107100000D03*
X96660000Y-107100000D03*
X99200000Y-107100000D03*
X101740000Y-107100000D03*
X104280000Y-107100000D03*
X106820000Y-107100000D03*
X109360000Y-107100000D03*
X111900000Y-107100000D03*
X114440000Y-107100000D03*
X116980000Y-107100000D03*
X119520000Y-107100000D03*
X119520000Y-91860000D03*
X116980000Y-91860000D03*
X114440000Y-91860000D03*
X111900000Y-91860000D03*
X109360000Y-91860000D03*
X106820000Y-91860000D03*
X104280000Y-91860000D03*
X101740000Y-91860000D03*
X99200000Y-91860000D03*
X96660000Y-91860000D03*
X94120000Y-91860000D03*
X91580000Y-91860000D03*
X89040000Y-91860000D03*
X86500000Y-91860000D03*
D25*
X142975000Y-145000000D03*
X143568109Y-143568109D03*
X143568109Y-146431891D03*
X145000000Y-142975000D03*
D26*
X145000000Y-145000000D03*
D25*
X145000000Y-147025000D03*
X146431891Y-143568109D03*
X146431891Y-146431891D03*
X147025000Y-145000000D03*
D14*
X83000000Y-91850000D03*
X80500000Y-91850000D03*
X125180000Y-80100000D03*
X122680000Y-80100000D03*
D12*
X58300000Y-99470000D03*
D13*
X60840000Y-99470000D03*
X63380000Y-99470000D03*
X65920000Y-99470000D03*
X68460000Y-99470000D03*
X71000000Y-99470000D03*
X73540000Y-99470000D03*
X73540000Y-91850000D03*
X71000000Y-91850000D03*
X68460000Y-91850000D03*
X65920000Y-91850000D03*
X63380000Y-91850000D03*
X60840000Y-91850000D03*
X58300000Y-91850000D03*
D25*
X142975000Y-55000000D03*
X143568109Y-53568109D03*
X143568109Y-56431891D03*
X145000000Y-52975000D03*
D26*
X145000000Y-55000000D03*
D25*
X145000000Y-57025000D03*
X146431891Y-53568109D03*
X146431891Y-56431891D03*
X147025000Y-55000000D03*
D31*
X88350000Y-94120000D03*
D32*
X87050000Y-94120000D03*
D31*
X132510000Y-62320000D03*
D32*
X131210000Y-62320000D03*
%LPD*%
M02*
